<svg width="16" height="19" viewBox="0 0 16 19" fill="none" xmlns="http://www.w3.org/2000/svg">
<path d="M5.352 1.968C4.344 2 3.568 2.384 3.024 3.12C2.496 3.856 2.232 5.128 2.232 6.936C2.232 7.528 2.288 7.944 2.4 8.184C2.512 8.408 2.568 8.536 2.568 8.568C1.704 8.568 1.056 8.392 0.624 8.04C0.208 7.672 0 7.072 0 6.24C0 5.104 0.28 4.072 0.84 3.144C1.4 2.2 2.288 1.44 3.504 0.864C4.736 0.288 6.296 0 8.184 0C8.568 0 9.08 0.04 9.72 0.12C10.872 0.232 11.688 0.288001 12.168 0.288001C13.016 0.288001 13.736 0.192 14.328 0C14.28 0.144 14.192 0.464 14.064 0.960001C13.936 1.44 13.704 1.856 13.368 2.208C13.048 2.544 12.608 2.768 12.048 2.88C11.104 2.88 9.984 2.728 8.688 2.424L7.68 7.2H11.184L10.8 8.976H7.296L5.352 18H1.896L5.352 1.968Z" fill="black"/>
<path d="M13.4396 18.096C12.9116 18.096 12.4636 17.912 12.0956 17.544C11.7276 17.176 11.5436 16.728 11.5436 16.2C11.5436 15.672 11.7276 15.224 12.0956 14.856C12.4636 14.472 12.9116 14.28 13.4396 14.28C13.9676 14.28 14.4156 14.472 14.7836 14.856C15.1676 15.224 15.3596 15.672 15.3596 16.2C15.3596 16.728 15.1676 17.176 14.7836 17.544C14.4156 17.912 13.9676 18.096 13.4396 18.096Z" fill="#FF7426"/>
</svg>
